<?xml version="1.0" encoding="utf-8"?>
<!-- Generator: Adobe Illustrator 27.5.0, SVG Export Plug-In . SVG Version: 6.00 Build 0)  -->
<svg version="1.1" id="Layer_1" xmlns="http://www.w3.org/2000/svg" xmlns:xlink="http://www.w3.org/1999/xlink" x="0px" y="0px"
	 viewBox="0 0 16 16" style="enable-background:new 0 0 16 16;" xml:space="preserve">
<style type="text/css">
	.st0{fill:none;}
	.st1{fill:#222B3D;}
</style>
<rect class="st0" width="16" height="16"/>
<path class="st1" d="M13.4,5.2L9.9,1.7c0,0-0.1-0.1-0.2-0.1c-0.1,0-0.1,0-0.2,0h-6C3.2,1.5,3,1.6,2.8,1.8C2.6,2,2.5,2.2,2.5,2.5v11
	c0,0.3,0.1,0.5,0.3,0.7s0.4,0.3,0.7,0.3h9c0.3,0,0.5-0.1,0.7-0.3c0.2-0.2,0.3-0.4,0.3-0.7v-8c0-0.1,0-0.1,0-0.2S13.4,5.2,13.4,5.2z
	 M10,3.2L11.8,5H10V3.2z M12.5,13.5h-9v-11H9v3c0,0.1,0.1,0.3,0.1,0.3C9.2,5.9,9.4,6,9.5,6h3V13.5z M10,9.5c0,0.1-0.1,0.3-0.1,0.4
	C9.8,9.9,9.6,10,9.5,10h-1v1c0,0.1-0.1,0.3-0.1,0.4c-0.1,0.1-0.2,0.1-0.4,0.1s-0.3-0.1-0.3-0.1c-0.1-0.1-0.2-0.2-0.2-0.4v-1h-1
	c-0.1,0-0.3-0.1-0.3-0.1C6.1,9.8,6,9.6,6,9.5s0.1-0.3,0.2-0.4C6.2,9.1,6.4,9,6.5,9h1V8c0-0.1,0.1-0.3,0.2-0.3C7.7,7.6,7.9,7.5,8,7.5
	s0.3,0.1,0.4,0.2C8.4,7.7,8.5,7.9,8.5,8v1h1c0.1,0,0.3,0.1,0.4,0.1C9.9,9.2,10,9.4,10,9.5z"/>
</svg>
