<?xml version="1.0" encoding="utf-8"?>
<!-- Generator: Adobe Illustrator 27.5.0, SVG Export Plug-In . SVG Version: 6.00 Build 0)  -->
<svg version="1.1" id="Layer_1" xmlns="http://www.w3.org/2000/svg" xmlns:xlink="http://www.w3.org/1999/xlink" x="0px" y="0px"
	 viewBox="0 0 16 16" style="enable-background:new 0 0 16 16;" xml:space="preserve">
<style type="text/css">
	.st0{fill:none;}
	.st1{fill:#222B3D;}
</style>
<rect class="st0" width="16" height="16"/>
<rect class="st0" width="16" height="16"/>
<path class="st1" d="M13.5,4.5H8.2L6.5,2.8C6.4,2.7,6.3,2.6,6.2,2.6c-0.1,0-0.2-0.1-0.4-0.1H2.5C2.2,2.5,2,2.6,1.8,2.8
	S1.5,3.2,1.5,3.5v9c0,0.2,0.1,0.5,0.3,0.7s0.4,0.3,0.7,0.3h11.1c0.2,0,0.5-0.1,0.7-0.3c0.2-0.2,0.3-0.4,0.3-0.7V5.5
	c0-0.3-0.1-0.5-0.3-0.7S13.8,4.5,13.5,4.5L13.5,4.5z M5.8,3.5l1,1H2.5v-1H5.8z M13.5,12.5h-11v-7h11V12.5z M8,7
	c0.1,0,0.3,0.1,0.4,0.2c0.1,0.1,0.1,0.2,0.1,0.3v1h1c0.1,0,0.3,0.1,0.4,0.1C9.9,8.7,10,8.9,10,9S9.9,9.3,9.9,9.4
	C9.8,9.4,9.6,9.5,9.5,9.5h-1v1c0,0.1-0.1,0.3-0.1,0.4C8.3,10.9,8.1,11,8,11s-0.3-0.1-0.3-0.1c-0.1-0.1-0.2-0.2-0.2-0.4v-1h-1
	c-0.1,0-0.3-0.1-0.3-0.1C6.1,9.3,6,9.1,6,9s0.1-0.3,0.2-0.4s0.2-0.1,0.3-0.1h1v-1c0-0.1,0.1-0.3,0.2-0.3C7.7,7.1,7.9,7,8,7z"/>
</svg>
