<?xml version="1.0" encoding="utf-8"?>
<!-- Generator: Adobe Illustrator 27.5.0, SVG Export Plug-In . SVG Version: 6.00 Build 0)  -->
<svg version="1.1" id="Layer_1" xmlns="http://www.w3.org/2000/svg" xmlns:xlink="http://www.w3.org/1999/xlink" x="0px" y="0px"
	 viewBox="0 0 16 16" style="enable-background:new 0 0 16 16;" xml:space="preserve">
<style type="text/css">
	.st0{fill:none;}
	.st1{clip-path:url(#SVGID_00000056396710073844013620000002695708189224938882_);}
	.st2{clip-path:url(#SVGID_00000083054698498057990440000002088780195303382429_);}
	.st3{fill:none;stroke:#222B3D;stroke-width:1.2;stroke-linecap:round;stroke-linejoin:round;}
</style>
<rect class="st0" width="16" height="16"/>
<g>
	<defs>
		<rect id="SVGID_1_" width="16" height="16"/>
	</defs>
	<clipPath id="SVGID_00000020399163856433916320000015327302752822799549_">
		<use xlink:href="#SVGID_1_"  style="overflow:visible;"/>
	</clipPath>
	<g style="clip-path:url(#SVGID_00000020399163856433916320000015327302752822799549_);">
		<g>
			<defs>
				<rect id="SVGID_00000075872871038970540360000004963088702333559943_" width="16" height="16"/>
			</defs>
			<clipPath id="SVGID_00000126315673941145476480000017094088149250985900_">
				<use xlink:href="#SVGID_00000075872871038970540360000004963088702333559943_"  style="overflow:visible;"/>
			</clipPath>
			<g style="clip-path:url(#SVGID_00000126315673941145476480000017094088149250985900_);">
				<path class="st3" d="M10.1,4.7L5.7,9.1C5.6,9.2,5.5,9.3,5.4,9.5S5.3,9.8,5.3,10s0,0.4,0.1,0.5c0.1,0.2,0.2,0.3,0.3,0.4
					c0.1,0.1,0.3,0.2,0.4,0.3c0.2,0.1,0.3,0.1,0.5,0.1s0.3,0,0.5-0.1s0.3-0.2,0.4-0.3l4.3-4.4c0.5-0.5,0.8-1.2,0.8-1.9
					s-0.3-1.4-0.8-1.9S10.7,2.1,10,2C9.3,2,8.6,2.3,8.1,2.8L3.8,7.2C3.1,7.9,2.7,8.9,2.7,10s0.4,2.1,1.2,2.8S5.6,14,6.7,14
					s2.1-0.4,2.8-1.2l4.2-4.2"/>
			</g>
		</g>
	</g>
</g>
</svg>
