<?xml version="1.0" encoding="UTF-8"?><svg id="Layer_1" xmlns="http://www.w3.org/2000/svg" viewBox="0 0 16 16"><defs><style>.cls-1,.cls-2{fill:none;}.cls-2{stroke:#222b3d;stroke-linecap:round;stroke-linejoin:round;stroke-width:1.4px;}</style></defs><path class="cls-2" d="m8,5.33v2.67l2,2m4-2c0,.79-.16,1.57-.46,2.3-.3.73-.74,1.39-1.3,1.95-.56.56-1.22,1-1.95,1.3-.73.3-1.51.46-2.3.46s-1.57-.16-2.3-.46c-.73-.3-1.39-.74-1.95-1.3-.56-.56-1-1.22-1.3-1.95-.3-.73-.46-1.51-.46-2.3,0-1.59.63-3.12,1.76-4.24,1.13-1.13,2.65-1.76,4.24-1.76s3.12.63,4.24,1.76c1.13,1.13,1.76,2.65,1.76,4.24Z"/><rect class="cls-1" width="16" height="16"/></svg>