<?xml version="1.0" encoding="UTF-8"?><svg id="Layer_1" xmlns="http://www.w3.org/2000/svg" viewBox="0 0 16 16"><defs><style>.cls-1,.cls-2{fill:none;}.cls-2{stroke:#222b3d;stroke-linecap:round;stroke-linejoin:round;stroke-width:1.4px;}</style></defs><path class="cls-2" d="m5.33,4.67v-2.67m5.33,2.67v-2.67m-6,5.33h6.67M3.33,14h9.33c.35,0,.69-.14.94-.39.25-.25.39-.59.39-.94v-8c0-.35-.14-.69-.39-.94s-.59-.39-.94-.39H3.33c-.35,0-.69.14-.94.39s-.39.59-.39.94v8c0,.35.14.69.39.94.25.25.59.39.94.39Z"/><rect class="cls-1" width="16" height="16"/></svg>