<?xml version="1.0" encoding="UTF-8"?><svg id="Layer_1" xmlns="http://www.w3.org/2000/svg" viewBox="0 0 16 16"><defs><style>.cls-1,.cls-2{fill:none;}.cls-2{stroke:#222b3d;stroke-linecap:round;stroke-linejoin:round;stroke-width:1.4px;}</style></defs><rect class="cls-1" width="16" height="16"/><path class="cls-2" d="m9.49,6.37l-.19,4.89m-2.61,0l-.19-4.89m5.44-1.75c.19.03.37.06.56.09m-.56-.09l-.58,7.55c-.02.31-.16.59-.39.8-.23.21-.52.33-.83.33h-4.27c-.31,0-.61-.12-.83-.33-.23-.21-.37-.5-.39-.8l-.58-7.55m7.89,0c-.63-.09-1.26-.17-1.9-.21m-5.99.21c-.19.03-.37.06-.56.09m.56-.09c.63-.09,1.26-.17,1.9-.21m4.09,0v-.5c0-.64-.5-1.18-1.14-1.2-.6-.02-1.21-.02-1.81,0-.64.02-1.14.56-1.14,1.2v.5m4.09,0c-1.36-.1-2.73-.1-4.09,0"/></svg>