<?xml version="1.0" encoding="UTF-8"?><svg id="Layer_1" xmlns="http://www.w3.org/2000/svg" viewBox="0 0 16 16"><defs><style>.cls-1{fill:none;}.cls-2{fill:#222b3d;}</style></defs><rect class="cls-1" width="16" height="16"/><rect class="cls-1" width="16" height="16"/><path class="cls-2" d="m13.5,2H5.5c-.13,0-.26.05-.35.15-.09.09-.15.22-.15.35v2.5h-2.5c-.13,0-.26.05-.35.15-.09.09-.15.22-.15.35v8c0,.13.05.26.15.35.09.09.22.15.35.15h8c.13,0,.26-.05.35-.15.09-.09.15-.22.15-.35v-2.5h2.5c.13,0,.26-.05.35-.15.09-.09.15-.22.15-.35V2.5c0-.13-.05-.26-.15-.35-.09-.09-.22-.15-.35-.15Zm-3.5,11H3v-7h7v7Zm3-3h-2v-4.5c0-.13-.05-.26-.15-.35-.09-.09-.22-.15-.35-.15h-4.5v-2h7v7Z"/></svg>