<?xml version="1.0" encoding="UTF-8"?><svg id="Layer_1" xmlns="http://www.w3.org/2000/svg" viewBox="0 0 16 16"><defs><style>.cls-1{fill:none;}.cls-2{fill:#222b3d;fill-rule:evenodd;}</style></defs><path class="cls-2" d="m8,14c3.31,0,6-2.69,6-6s-2.69-6-6-6-6,2.69-6,6,2.69,6,6,6Zm-.97-8.03c-.29-.29-.77-.29-1.06,0s-.29.77,0,1.06l.97.97-.97.97c-.29.29-.29.77,0,1.06.29.29.77.29,1.06,0l.97-.97.97.97c.29.29.77.29,1.06,0,.29-.29.29-.77,0-1.06l-.97-.97.97-.97c.29-.29.29-.77,0-1.06-.29-.29-.77-.29-1.06,0l-.97.97-.97-.97Z"/><rect class="cls-1" y="0" width="16" height="16"/></svg>