<?xml version="1.0" encoding="UTF-8"?><svg id="Layer_1" xmlns="http://www.w3.org/2000/svg" viewBox="0 0 16 16"><defs><style>.cls-1,.cls-2{fill:none;}.cls-2{stroke:#222b3d;stroke-linecap:round;stroke-linejoin:round;stroke-width:1.4px;}</style></defs><rect class="cls-1" width="16" height="16"/><path class="cls-2" d="m3.65,3.21l8.71,9.58"/><path class="cls-2" d="m9.46,9.61c-.4.37-.92.57-1.46.57-.44,0-.87-.13-1.23-.38-.36-.25-.64-.6-.8-1.01-.16-.41-.19-.86-.09-1.29s.33-.81.65-1.11"/><path class="cls-2" d="m5.06,4.77c-2.22,1.12-3.16,3.23-3.16,3.23,0,0,1.74,3.92,6.09,3.92,1.02,0,2.03-.23,2.94-.69"/><path class="cls-2" d="m12.39,10.24c1.19-1.06,1.71-2.24,1.71-2.24,0,0-1.74-3.92-6.09-3.92-.38,0-.75.03-1.13.09"/><path class="cls-2" d="m8.41,5.86c.46.09.88.32,1.2.67s.51.79.56,1.26"/></svg>