<?xml version="1.0" encoding="utf-8"?>
<!-- Generator: Adobe Illustrator 27.5.0, SVG Export Plug-In . SVG Version: 6.00 Build 0)  -->
<svg version="1.1" id="Layer_1" xmlns="http://www.w3.org/2000/svg" xmlns:xlink="http://www.w3.org/1999/xlink" x="0px" y="0px"
	 viewBox="0 0 16 16" style="enable-background:new 0 0 16 16;" xml:space="preserve">
<style type="text/css">
	.st0{fill:none;}
	.st1{fill:#222B3D;}
</style>
<rect class="st0" width="16" height="16"/>
<path class="st1" d="M9.8,13.4c0,0.1-0.1,0.3-0.1,0.4c-0.1,0.1-0.2,0.1-0.4,0.1H7.5c-0.1,0-0.3-0.1-0.3-0.1C7.1,13.7,7,13.5,7,13.4
	V9.9c0-0.1,0.1-0.3,0.2-0.4c0.1-0.1,0.2-0.1,0.3-0.1s0.3,0.1,0.3,0.1C8,9.6,8,9.8,8,9.9v3h1.2c0.1,0,0.3,0.1,0.4,0.1
	C9.7,13.1,9.8,13.3,9.8,13.4z M5.8,9.5c-0.1,0-0.1-0.1-0.2-0.1c-0.1,0-0.1,0-0.2,0c-0.1,0-0.1,0-0.2,0.1c-0.1,0-0.1,0.1-0.1,0.1
	l-0.8,1.2L3.4,9.6c0-0.1-0.1-0.1-0.1-0.1c-0.1,0-0.1-0.1-0.2-0.1c-0.1,0-0.1,0-0.2,0s-0.1,0-0.2,0.1c-0.1,0-0.1,0.1-0.1,0.1
	c0,0.1-0.1,0.1-0.1,0.2c0,0.1,0,0.1,0,0.2c0,0.1,0,0.1,0.1,0.2l1,1.5l-1,1.5c-0.1,0.1-0.1,0.2-0.1,0.4c0,0.1,0.1,0.2,0.2,0.3
	c0.1,0.1,0.2,0.1,0.4,0.1c0.1,0,0.2-0.1,0.3-0.2l0.8-1.2l0.8,1.2c0.1,0.1,0.2,0.2,0.3,0.2c0.1,0,0.3,0,0.4-0.1
	C5.9,13.7,6,13.6,6,13.5c0-0.1,0-0.3-0.1-0.4l-1-1.5l1-1.5C5.9,10.1,6,10.1,6,10c0-0.1,0-0.1,0-0.2s0-0.1-0.1-0.2
	C5.9,9.6,5.8,9.5,5.8,9.5L5.8,9.5z M12,11.1c-0.2-0.1-0.5-0.1-0.6-0.2c-0.1-0.1-0.1-0.1-0.1-0.1c0,0,0-0.1,0-0.1
	c0,0,0.1-0.1,0.1-0.1c0.3-0.2,1-0.1,1.2,0c0.1,0,0.3,0,0.4-0.1c0.1-0.1,0.2-0.2,0.2-0.3s0-0.3-0.1-0.4c-0.1-0.1-0.2-0.2-0.3-0.2
	c-0.1,0-1.3-0.3-2.1,0.2c-0.2,0.1-0.3,0.2-0.4,0.4c-0.1,0.2-0.2,0.3-0.2,0.5c-0.1,1,0.9,1.3,1.4,1.4c0.8,0.2,0.8,0.3,0.8,0.5
	c0,0.1-0.1,0.2-0.1,0.2c-0.3,0.2-0.9,0.1-1.2,0c-0.1,0-0.3,0-0.4,0.1c-0.1,0-0.1,0.1-0.1,0.1s-0.1,0.1-0.1,0.2s0,0.1,0,0.2
	c0,0.1,0,0.1,0.1,0.2c0.1,0.1,0.2,0.2,0.3,0.2c0.3,0.1,0.6,0.1,0.9,0.1c0.4,0,0.8-0.1,1.1-0.3c0.2-0.1,0.3-0.2,0.4-0.4
	c0.1-0.2,0.2-0.4,0.2-0.5C13.6,11.5,12.6,11.2,12,11.1L12,11.1z M2.5,7.4V2.9c0-0.3,0.1-0.5,0.3-0.7s0.4-0.3,0.7-0.3h6
	c0.1,0,0.1,0,0.2,0C9.8,2,9.8,2,9.9,2l3.5,3.5c0,0,0.1,0.1,0.1,0.2c0,0.1,0,0.1,0,0.2v1.5c0,0.1-0.1,0.3-0.1,0.3
	c-0.1,0.1-0.2,0.2-0.4,0.2s-0.3-0.1-0.4-0.2c-0.1-0.1-0.1-0.2-0.1-0.3v-1h-3c-0.1,0-0.3-0.1-0.4-0.2C9.1,6.1,9,6,9,5.9v-3H3.5v4.5
	c0,0.1,0,0.3-0.2,0.3C3.3,7.8,3.1,7.9,3,7.9S2.8,7.8,2.7,7.7C2.6,7.6,2.5,7.5,2.5,7.4z M10,5.4h1.8L10,3.6V5.4z"/>
</svg>
