<?xml version="1.0" encoding="utf-8"?>
<!-- Generator: Adobe Illustrator 27.5.0, SVG Export Plug-In . SVG Version: 6.00 Build 0)  -->
<svg version="1.1" id="Layer_1" xmlns="http://www.w3.org/2000/svg" xmlns:xlink="http://www.w3.org/1999/xlink" x="0px" y="0px"
	 viewBox="0 0 16 16" style="enable-background:new 0 0 16 16;" xml:space="preserve">
<style type="text/css">
	.st0{fill:none;}
	.st1{fill:#222B3D;}
</style>
<rect class="st0" width="16" height="16"/>
<path class="st1" d="M13.5,2.5h-11C2.2,2.5,2,2.6,1.8,2.8C1.6,3,1.5,3.2,1.5,3.5v9c0,0.3,0.1,0.5,0.3,0.7c0.2,0.2,0.4,0.3,0.7,0.3
	h11c0.3,0,0.5-0.1,0.7-0.3c0.2-0.2,0.3-0.4,0.3-0.7v-9c0-0.3-0.1-0.5-0.3-0.7C14,2.6,13.8,2.5,13.5,2.5z M13.5,3.5v6.4l-1.6-1.6
	c-0.1-0.1-0.2-0.2-0.3-0.2S11.3,8,11.2,8s-0.3,0-0.4,0.1s-0.2,0.1-0.3,0.2L9.2,9.5L6.5,6.8C6.3,6.6,6,6.5,5.8,6.5S5.2,6.6,5.1,6.8
	L2.5,9.3V3.5H13.5L13.5,3.5z M2.5,10.8l3.2-3.2l5,5H2.5V10.8z M13.5,12.5h-1.3l-2.2-2.2L11.2,9l2.3,2.3V12.5z M9,6.2
	C9,6.1,9,6,9.1,5.8c0.1-0.1,0.2-0.2,0.3-0.3c0.1-0.1,0.3-0.1,0.4,0c0.1,0,0.3,0.1,0.4,0.2s0.2,0.2,0.2,0.4c0,0.1,0,0.3,0,0.4
	c-0.1,0.1-0.1,0.2-0.3,0.3C10.1,6.9,9.9,7,9.8,7C9.6,7,9.4,6.9,9.2,6.8C9.1,6.6,9,6.5,9,6.2z"/>
</svg>
