<?xml version="1.0" encoding="utf-8"?>
<!-- Generator: Adobe Illustrator 27.5.0, SVG Export Plug-In . SVG Version: 6.00 Build 0)  -->
<svg version="1.1" id="Layer_1" xmlns="http://www.w3.org/2000/svg" xmlns:xlink="http://www.w3.org/1999/xlink" x="0px" y="0px"
	 viewBox="0 0 16 16" style="enable-background:new 0 0 16 16;" xml:space="preserve">
<style type="text/css">
	.st0{fill:none;}
	.st1{fill:#222B3D;}
</style>
<rect class="st0" width="16" height="16"/>
<path class="st1" d="M3.4,9.5h-1C2.2,9.5,2.1,9.6,2,9.6C1.9,9.7,1.9,9.9,1.9,10v3.5c0,0.1,0,0.3,0.1,0.4C2.1,13.9,2.2,14,2.4,14h1
	C4,14,4.5,13.8,5,13.3s0.7-1,0.7-1.6S5.4,10.6,5,10.2S4,9.5,3.4,9.5z M3.4,13H2.9v-2.5h0.5c0.3,0,0.7,0.1,0.9,0.4s0.4,0.6,0.4,0.9
	s-0.1,0.6-0.4,0.9C4,12.9,3.7,13,3.4,13z M14,12.7c0.1,0.1,0.1,0.2,0.1,0.4s-0.1,0.3-0.1,0.4c-0.2,0.2-0.4,0.3-0.6,0.4
	c-0.2,0.1-0.5,0.2-0.7,0.2c-1.1,0-2-1-2-2.2s0.9-2.2,2-2.2c0.3,0,0.5,0.1,0.7,0.2c0.2,0.1,0.4,0.2,0.6,0.4c0.1,0.1,0.1,0.2,0.1,0.4
	c0,0.1-0.1,0.3-0.1,0.4s-0.2,0.1-0.4,0.1s-0.3-0.1-0.4-0.1c-0.1-0.1-0.2-0.2-0.3-0.2s-0.2-0.1-0.4-0.1c-0.6,0-1,0.6-1,1.2
	s0.4,1.2,1,1.2c0.1,0,0.2,0,0.4-0.1s0.2-0.1,0.3-0.2c0.1-0.1,0.2-0.1,0.4-0.1S13.9,12.6,14,12.7L14,12.7z M8.1,9.5c-1.1,0-2,1-2,2.2
	S7,14,8.1,14s2-1,2-2.2S9.2,9.5,8.1,9.5z M8.1,13c-0.6,0-1-0.6-1-1.2s0.4-1.2,1-1.2s1,0.6,1,1.2S8.7,13,8.1,13z M3.1,8
	c0.1,0,0.3-0.1,0.3-0.2c0.1-0.1,0.2-0.2,0.2-0.3V3h5.5v3c0,0.1,0.1,0.3,0.1,0.3c0.1,0.1,0.2,0.2,0.4,0.2h3v1c0,0.1,0.1,0.3,0.1,0.3
	C12.9,7.9,13,8,13.1,8s0.3-0.1,0.4-0.2c0.1-0.1,0.1-0.2,0.1-0.3V6c0-0.1,0-0.1,0-0.2s-0.1-0.1-0.1-0.2L10,2.2c0,0-0.1-0.1-0.2-0.1
	C9.8,2,9.7,2,9.6,2h-6C3.4,2,3.1,2.1,2.9,2.3S2.6,2.7,2.6,3v4.5c0,0.1,0,0.3,0.2,0.3C2.9,7.9,3,8,3.1,8z M10.1,3.7l1.8,1.8h-1.8V3.7
	z"/>
</svg>
