<?xml version="1.0" encoding="utf-8"?>
<!-- Generator: Adobe Illustrator 27.5.0, SVG Export Plug-In . SVG Version: 6.00 Build 0)  -->
<svg version="1.1" id="Layer_1" xmlns="http://www.w3.org/2000/svg" xmlns:xlink="http://www.w3.org/1999/xlink" x="0px" y="0px"
	 viewBox="0 0 16 16" style="enable-background:new 0 0 16 16;" xml:space="preserve">
<style type="text/css">
	.st0{fill:none;}
	.st1{fill:#222B3D;}
</style>
<rect class="st0" width="16" height="16"/>
<path class="st1" d="M6.2,8C6.1,8,6,8,5.9,8S5.7,8.1,5.6,8.2L4.3,9.5H3c-0.1,0-0.3,0.1-0.3,0.1C2.6,9.7,2.5,9.9,2.5,10v2.5
	c0,0.1,0,0.3,0.2,0.4C2.7,12.9,2.9,13,3,13h1.3l1.3,1.4c0.1,0.1,0.2,0.1,0.3,0.1c0.1,0,0.2,0,0.3,0c0.1,0,0.2-0.1,0.2-0.2
	c0.1-0.1,0.1-0.2,0.1-0.3V8.5c0-0.1,0-0.2-0.1-0.3C6.4,8.1,6.3,8.1,6.2,8z M5.5,12.8l-0.7-0.6c0,0-0.1-0.1-0.2-0.1
	c-0.1,0-0.1,0-0.2,0h-1v-1.5h1c0.1,0,0.1,0,0.2,0c0.1,0,0.1-0.1,0.2-0.1l0.7-0.6V12.8L5.5,12.8z M9.5,11.3c0,0.4-0.1,0.9-0.3,1.3
	c-0.2,0.4-0.5,0.7-0.9,0.9c-0.1,0.1-0.2,0.1-0.4,0c-0.1,0-0.2-0.1-0.3-0.2c-0.1-0.1-0.1-0.2-0.1-0.4c0-0.1,0.1-0.2,0.2-0.3
	C8,12.5,8.2,12.3,8.3,12c0.1-0.2,0.2-0.5,0.2-0.8s-0.1-0.5-0.2-0.8C8.2,10.3,8,10.1,7.8,9.9C7.6,9.9,7.6,9.8,7.5,9.6s0-0.2,0.1-0.4
	c0.1-0.1,0.2-0.2,0.3-0.2s0.2,0,0.4,0C8.6,9.3,8.9,9.6,9.2,10C9.4,10.4,9.5,10.8,9.5,11.3L9.5,11.3z M13.4,5.2L9.9,1.7
	c0,0-0.1-0.1-0.2-0.1c-0.1,0-0.1,0-0.2,0h-6C3.2,1.5,3,1.6,2.8,1.8C2.6,2,2.5,2.2,2.5,2.5v5c0,0.1,0,0.3,0.2,0.3C2.7,8,2.9,8,3,8
	S3.3,8,3.3,7.9c0.1-0.1,0.2-0.2,0.2-0.3v-5H9v3c0,0.1,0.1,0.3,0.1,0.3C9.2,5.9,9.4,6,9.5,6h3v7.5h-2c-0.1,0-0.3,0.1-0.4,0.1
	C10.1,13.7,10,13.9,10,14s0.1,0.3,0.1,0.4c0.1,0.1,0.2,0.1,0.4,0.1h2c0.3,0,0.5-0.1,0.7-0.3c0.2-0.2,0.3-0.4,0.3-0.7v-8
	c0-0.1,0-0.1,0-0.2S13.4,5.2,13.4,5.2L13.4,5.2z M10,3.2L11.8,5H10V3.2z"/>
</svg>
