<?xml version="1.0" encoding="utf-8"?>
<!-- Generator: Adobe Illustrator 27.5.0, SVG Export Plug-In . SVG Version: 6.00 Build 0)  -->
<svg version="1.1" id="Layer_1" xmlns="http://www.w3.org/2000/svg" xmlns:xlink="http://www.w3.org/1999/xlink" x="0px" y="0px"
	 viewBox="0 0 16 16" style="enable-background:new 0 0 16 16;" xml:space="preserve">
<style type="text/css">
	.st0{fill:none;}
	.st1{fill:#222B3D;}
</style>
<rect class="st0" width="16" height="16"/>
<path class="st1" d="M9.5,9.6c-0.1,0-0.1-0.1-0.2-0.1c-0.1,0-0.2,0-0.2,0.1l-1.3,0.6C7.6,10,7.5,9.8,7.3,9.7S7,9.5,6.8,9.5H3.3
	C3,9.5,2.7,9.6,2.5,9.8s-0.3,0.4-0.3,0.7V13c0,0.3,0.1,0.5,0.3,0.7S3,14,3.3,14h3.5c0.2,0,0.4-0.1,0.6-0.2c0.2-0.1,0.3-0.3,0.4-0.5
	L9,13.9C9.1,14,9.2,14,9.3,14s0.2,0,0.2-0.1s0.1-0.1,0.2-0.2c0-0.1,0.1-0.2,0.1-0.2V10c0-0.1,0-0.2-0.1-0.2S9.6,9.6,9.5,9.6L9.5,9.6
	z M6.8,13H3.2v-2.5h3.5V13z M8.8,12.7l-1-0.5v-0.9l1-0.5V12.7z M13.6,5.1l-3.5-3.5c0,0-0.1-0.1-0.2-0.1c-0.1,0-0.1,0-0.2,0h-6
	C3.5,1.5,3.2,1.6,3,1.8S2.8,2.2,2.8,2.5V8c0,0.1,0,0.3,0.2,0.4C3,8.4,3.1,8.5,3.2,8.5s0.3-0.1,0.3-0.1C3.7,8.2,3.8,8.1,3.8,8V2.5
	h5.5v3c0,0.1,0.1,0.3,0.1,0.3C9.5,5.9,9.6,6,9.8,6h3v7.5h-1.5c-0.1,0-0.3,0.1-0.4,0.1c-0.1,0.1-0.1,0.2-0.1,0.4s0.1,0.3,0.1,0.4
	c0.1,0.1,0.2,0.1,0.4,0.1h1.5c0.3,0,0.5-0.1,0.7-0.3s0.3-0.4,0.3-0.7v-8c0-0.1,0-0.1,0-0.2S13.6,5.2,13.6,5.1L13.6,5.1z M10.2,3.2
	L12,5h-1.8V3.2z"/>
</svg>
