<?xml version="1.0" encoding="utf-8"?>
<!-- Generator: Adobe Illustrator 27.5.0, SVG Export Plug-In . SVG Version: 6.00 Build 0)  -->
<svg version="1.1" id="Layer_1" xmlns="http://www.w3.org/2000/svg" xmlns:xlink="http://www.w3.org/1999/xlink" x="0px" y="0px"
	 viewBox="0 0 16 16" style="enable-background:new 0 0 16 16;" xml:space="preserve">
<style type="text/css">
	.st0{fill:none;}
	.st1{fill:#222B3D;}
</style>
<rect class="st0" width="16" height="16"/>
<path class="st1" d="M13.8,10c0,0.1-0.1,0.3-0.1,0.4c-0.1,0.1-0.2,0.1-0.4,0.1h-1.5v1h1c0.1,0,0.3,0.1,0.4,0.1
	c0.1,0.1,0.1,0.2,0.1,0.4s-0.1,0.3-0.1,0.4c-0.1,0.1-0.2,0.1-0.4,0.1h-1v1c0,0.1-0.1,0.3-0.1,0.4c-0.1,0.1-0.2,0.1-0.4,0.1
	s-0.3-0.1-0.4-0.1c-0.1-0.1-0.1-0.2-0.1-0.4V10c0-0.1,0.1-0.3,0.1-0.4c0.1-0.1,0.2-0.1,0.4-0.1h2c0.1,0,0.3,0.1,0.4,0.1
	C13.7,9.7,13.8,9.9,13.8,10z M5.5,11.2c0,0.5-0.2,0.9-0.5,1.2C4.7,12.8,4.2,13,3.7,13H3.2v0.5c0,0.1,0,0.3-0.2,0.4
	C3,13.9,2.9,14,2.7,14s-0.3-0.1-0.3-0.1c-0.1-0.1-0.2-0.2-0.2-0.4V10c0-0.1,0-0.3,0.2-0.4c0.1-0.1,0.2-0.1,0.3-0.1h1
	C4.2,9.5,4.7,9.7,5,10S5.5,10.8,5.5,11.2z M4.5,11.2c0-0.2-0.1-0.4-0.2-0.5c-0.1-0.1-0.3-0.2-0.5-0.2H3.3V12h0.5
	c0.2,0,0.4-0.1,0.5-0.2S4.5,11.4,4.5,11.2z M10,11.8c0,0.6-0.2,1.2-0.7,1.6S8.4,14,7.8,14h-1c-0.1,0-0.3-0.1-0.3-0.1
	c-0.1-0.1-0.2-0.2-0.2-0.4V10c0-0.1,0.1-0.3,0.2-0.4c0.1-0.1,0.2-0.1,0.3-0.1h1c0.6,0,1.2,0.2,1.6,0.7S10,11.1,10,11.8z M9,11.8
	c0-0.3-0.1-0.6-0.4-0.9c-0.2-0.2-0.6-0.4-0.9-0.4H7.2V13h0.5c0.3,0,0.6-0.1,0.9-0.4C8.9,12.4,9,12.1,9,11.8z M2.2,7.5V3
	c0-0.3,0.1-0.5,0.3-0.7S3,2,3.2,2h6c0.1,0,0.1,0,0.2,0c0.1,0,0.1,0.1,0.2,0.1l3.5,3.5c0,0,0.1,0.1,0.1,0.2c0,0.1,0,0.1,0,0.2v1.5
	c0,0.1-0.1,0.3-0.1,0.3C13,7.9,12.9,8,12.7,8s-0.3-0.1-0.4-0.2c-0.1-0.1-0.1-0.2-0.1-0.3v-1h-3C9.1,6.5,9,6.4,8.9,6.3
	C8.8,6.3,8.7,6.1,8.7,6V3H3.2v4.5c0,0.1,0,0.3-0.2,0.3C3,7.9,2.9,8,2.8,8S2.5,7.9,2.4,7.8C2.3,7.8,2.2,7.6,2.2,7.5z M9.8,5.5h1.8
	L9.8,3.7V5.5z"/>
</svg>
