<?xml version="1.0" encoding="UTF-8"?><svg id="Layer_1" xmlns="http://www.w3.org/2000/svg" viewBox="0 0 16 16"><defs><style>.cls-1,.cls-2{fill:none;}.cls-2{stroke:#222b3d;stroke-linecap:round;stroke-linejoin:round;stroke-width:1.4px;}</style></defs><rect class="cls-1" width="16" height="16"/><path class="cls-2" d="m3.17,2.63h9.65c.09,0,.17.03.25.08.07.05.13.12.17.21.04.09.05.18.03.27-.01.09-.05.18-.11.25l-3.69,4.39c-.08.09-.12.21-.12.33v3.44c0,.08-.02.16-.05.23-.04.07-.09.13-.15.18l-1.8,1.29c-.07.05-.15.07-.23.08-.08,0-.16-.01-.23-.06-.07-.04-.13-.1-.17-.18-.04-.07-.06-.16-.07-.25v-4.74c0-.12-.04-.24-.12-.33L2.84,3.44c-.06-.07-.1-.16-.11-.25-.01-.09,0-.19.03-.27.04-.09.09-.16.17-.21.07-.05.16-.08.25-.08h0Z"/></svg>