<?xml version="1.0" encoding="utf-8"?>
<!-- Generator: Adobe Illustrator 27.5.0, SVG Export Plug-In . SVG Version: 6.00 Build 0)  -->
<svg version="1.1" id="Layer_1" xmlns="http://www.w3.org/2000/svg" xmlns:xlink="http://www.w3.org/1999/xlink" x="0px" y="0px"
	 viewBox="0 0 16 16" style="enable-background:new 0 0 16 16;" xml:space="preserve">
<style type="text/css">
	.st0{fill:none;}
	.st1{fill:#222B3D;}
</style>
<rect class="st0" width="16" height="16"/>
<path class="st1" d="M13.5,4.5H8.2L6.5,2.8C6.4,2.7,6.3,2.6,6.2,2.6c-0.1,0-0.2-0.1-0.4-0.1H2.5C2.2,2.5,2,2.6,1.8,2.8
	C1.6,3,1.5,3.2,1.5,3.5v9c0,0.2,0.1,0.5,0.3,0.7s0.4,0.3,0.7,0.3h11.1c0.2,0,0.5-0.1,0.7-0.3c0.2-0.2,0.3-0.4,0.3-0.7V5.5
	c0-0.3-0.1-0.5-0.3-0.7C14,4.6,13.8,4.5,13.5,4.5L13.5,4.5z M2.5,3.5h3.3l1,1H2.5V3.5z M13.5,12.5h-11v-7h11V12.5z"/>
</svg>
