<?xml version="1.0" encoding="utf-8"?>
<!-- Generator: Adobe Illustrator 27.5.0, SVG Export Plug-In . SVG Version: 6.00 Build 0)  -->
<svg version="1.1" id="Layer_1" xmlns="http://www.w3.org/2000/svg" xmlns:xlink="http://www.w3.org/1999/xlink" x="0px" y="0px"
	 viewBox="0 0 16 16" style="enable-background:new 0 0 16 16;" xml:space="preserve">
<style type="text/css">
	.st0{fill:none;}
	.st1{fill:#222B3D;}
</style>
<rect class="st0" width="16" height="16"/>
<path class="st1" d="M13,2H3C2.7,2,2.5,2.1,2.3,2.3S2,2.7,2,3v10c0,0.3,0.1,0.5,0.3,0.7C2.5,13.9,2.7,14,3,14h10
	c0.3,0,0.5-0.1,0.7-0.3S14,13.3,14,13V3c0-0.3-0.1-0.5-0.3-0.7C13.5,2.1,13.3,2,13,2z M13,3v6.5h-1.8c-0.1,0-0.3,0-0.4,0.1
	c-0.1,0.1-0.2,0.1-0.3,0.2L9.3,11H6.7L5.5,9.8C5.4,9.7,5.3,9.6,5.2,9.6C5.1,9.5,4.9,9.5,4.8,9.5H3V3H13L13,3z M13,13H3v-2.5h1.8
	L6,11.7c0.1,0.1,0.2,0.2,0.3,0.2C6.4,12,6.6,12,6.7,12h2.6c0.1,0,0.3,0,0.4-0.1c0.1-0.1,0.2-0.1,0.3-0.2l1.2-1.2H13L13,13L13,13z"/>
</svg>
