<?xml version="1.0" encoding="utf-8"?>
<!-- Generator: Adobe Illustrator 27.5.0, SVG Export Plug-In . SVG Version: 6.00 Build 0)  -->
<svg version="1.1" id="Layer_1" xmlns="http://www.w3.org/2000/svg" xmlns:xlink="http://www.w3.org/1999/xlink" x="0px" y="0px"
	 viewBox="0 0 16 16" style="enable-background:new 0 0 16 16;" xml:space="preserve">
<style type="text/css">
	.st0{fill:none;}
	.st1{fill:none;stroke:#222B3D;stroke-width:1.2;stroke-linecap:round;stroke-linejoin:round;}
</style>
<rect class="st0" width="16" height="16"/>
<path class="st1" d="M9.2,6.8C8.7,6.4,8.1,6.1,7.4,6.1S6.1,6.4,5.6,6.8L3.1,9.3c-0.2,0.2-0.4,0.5-0.6,0.8c-0.1,0.3-0.2,0.6-0.2,1
	s0.1,0.7,0.2,1c0.1,0.3,0.3,0.6,0.5,0.8c0.2,0.2,0.5,0.4,0.8,0.6s0.6,0.2,1,0.2s0.7-0.1,1-0.2c0.3-0.1,0.6-0.3,0.8-0.6l0.7-0.7
	 M6.9,9.1C7.4,9.6,8,9.9,8.7,9.9s1.3-0.3,1.8-0.7l2.5-2.5c0.5-0.5,0.7-1.1,0.7-1.8c0-0.7-0.3-1.3-0.7-1.8c-0.5-0.5-1.1-0.7-1.8-0.7
	S9.9,2.6,9.4,3.1L8.7,3.8"/>
</svg>
