<?xml version="1.0" encoding="UTF-8"?><svg id="Layer_1" xmlns="http://www.w3.org/2000/svg" viewBox="0 0 16 16"><defs><style>.cls-1{fill:none;}.cls-2{fill:#222b3d;fill-rule:evenodd;}</style></defs><path class="cls-2" d="m4.04,2.88c1.05-1.05,2.47-1.64,3.96-1.64s2.91.59,3.96,1.64c1.05,1.05,1.64,2.47,1.64,3.96s-.68,2.79-1.64,3.96c-.96,1.17-3.29,3.96-3.96,3.96s-3.33-3.12-3.96-3.96c-.63-.84-.93-1.14-1.21-1.82-.28-.68-.43-1.41-.43-2.14s.14-1.46.43-2.14c.28-.68.69-1.3,1.21-1.82Zm3.96,5.56c.42,0,.83-.17,1.13-.47.3-.3.47-.71.47-1.13s-.17-.83-.47-1.13c-.3-.3-.71-.47-1.13-.47s-.83.17-1.13.47c-.3.3-.47.71-.47,1.13s.17.83.47,1.13c.3.3.71.47,1.13.47Z"/><rect class="cls-1" x="0" y="0" width="16" height="16"/></svg>