<?xml version="1.0" encoding="UTF-8"?><svg id="Layer_1" xmlns="http://www.w3.org/2000/svg" viewBox="0 0 16 16"><defs><style>.cls-1,.cls-2{fill:none;}.cls-2{stroke:#222b3d;stroke-linecap:round;stroke-linejoin:round;stroke-width:1.4px;}</style></defs><path class="cls-2" d="m11.77,10.94l-2.83,2.83c-.12.12-.27.22-.43.29-.16.07-.33.1-.51.1s-.36-.03-.52-.1c-.16-.07-.3-.17-.42-.29l-2.83-2.83c-.75-.75-1.25-1.7-1.46-2.73-.21-1.03-.1-2.11.3-3.08.4-.97,1.09-1.81,1.96-2.39.88-.59,1.91-.9,2.96-.9s2.09.31,2.96.9c.88.59,1.56,1.42,1.96,2.39.4.97.51,2.05.3,3.08-.21,1.03-.71,1.98-1.46,2.73Z"/><path class="cls-2" d="m10,7.17c0,.53-.21,1.04-.59,1.41s-.88.59-1.41.59-1.04-.21-1.41-.59-.59-.88-.59-1.41.21-1.04.59-1.41c.38-.38.88-.59,1.41-.59s1.04.21,1.41.59c.38.38.59.88.59,1.41Z"/><rect class="cls-1" x="0" y="0" width="16" height="16"/></svg>