<?xml version="1.0" encoding="UTF-8"?><svg id="Layer_1" xmlns="http://www.w3.org/2000/svg" viewBox="0 0 16 16"><defs><style>.cls-1{fill:none;}.cls-2{fill:#222b3d;}</style></defs><rect class="cls-1" width="16" height="16"/><path class="cls-2" d="m8,9.91l.5.49c.13-.13.2-.31.2-.49h-.7Zm0-7.41l.45-.54c-.26-.22-.64-.22-.9,0l.45.54Zm-2.07.83c-.3.25-.33.69-.08.99.25.3.69.33.99.08l-.9-1.07Zm3.25,1.07c.3.25.74.21.99-.09.25-.3.21-.74-.08-.99l-.9,1.07Zm1.21,7.26l-.54-.45-.9,1.08.54.45.9-1.08Zm.66,2.37c.3.25.74.21.99-.09.25-.3.21-.74-.09-.99l-.9,1.08Zm-7.05-1.03c-.27.28-.26.72.01.99.28.27.72.26.99-.01l-1-.98ZM7.55,1.96l-1.62,1.37.9,1.07,1.62-1.37-.9-1.07Zm0,1.07l1.63,1.37.9-1.07-1.63-1.37-.9,1.07Zm1.15,6.88V2.5h-1.4v7.41s1.4,0,1.4,0Zm.79,2.83l1.55,1.3.9-1.08-1.55-1.29-.9,1.08Zm-1.99-3.32l-3.5,3.59,1,.98,3.5-3.59-1-.98Z"/></svg>