<?xml version="1.0" encoding="UTF-8"?><svg id="Layer_1" xmlns="http://www.w3.org/2000/svg" viewBox="0 0 16 16"><defs><style>.cls-1{fill:none;}.cls-2{fill:#222b3d;fill-rule:evenodd;}</style></defs><rect class="cls-1" width="16" height="16"/><path class="cls-2" d="m4.17,9.53v-3.06c0-1.85,1.32-3.4,3.07-3.75,0-.02,0-.05,0-.07,0-.42.34-.77.77-.77s.77.34.77.77c0,.02,0,.05,0,.07,1.75.35,3.07,1.9,3.07,3.75v3.06l1.53,1.53v.76H2.64v-.76l1.53-1.53Zm2.3,3.06h3.06c0,.85-.69,1.53-1.53,1.53s-1.53-.69-1.53-1.53Z"/></svg>