<?xml version="1.0" encoding="UTF-8"?><svg id="Layer_1" xmlns="http://www.w3.org/2000/svg" viewBox="0 0 16 16"><defs><style>.cls-1{fill:none;}.cls-2{fill:#222b3d;fill-rule:evenodd;}</style></defs><rect class="cls-1" width="16" height="16"/><path class="cls-2" d="m13.24,2.03c.18.18.28.43.28.68v10.58c0,.26-.1.5-.28.68-.18.18-.42.28-.68.28H3.9c-.26,0-.5-.1-.68-.28-.18-.18-.28-.43-.28-.68v-1.44h-.96c-.13,0-.25-.05-.34-.14-.09-.09-.14-.21-.14-.34s.05-.25.14-.34c.09-.09.21-.14.34-.14h.96v-2.4h-.96c-.13,0-.25-.05-.34-.14-.09-.09-.14-.21-.14-.34s.05-.25.14-.34c.09-.09.21-.14.34-.14h.96v-2.4h-.96c-.13,0-.25-.05-.34-.14-.09-.09-.14-.21-.14-.34s.05-.25.14-.34c.09-.09.21-.14.34-.14h.96v-1.44c0-.26.1-.5.28-.68.18-.18.42-.28.68-.28h8.65c.25,0,.5.1.68.28Zm-3.59,4.07c0,.29-.09.57-.23.8-.21.4-.63.68-1.12.68-.03,0-.06,0-.09,0h-.02c-.81,0-1.47-.66-1.47-1.47s.66-1.47,1.47-1.47,1.47.66,1.47,1.47Zm-4.3,5.26c0-1.63,1.32-2.94,2.94-2.94s2.94,1.32,2.94,2.94h-5.89Z"/></svg>