<?xml version="1.0" encoding="UTF-8"?><svg id="Layer_1" xmlns="http://www.w3.org/2000/svg" viewBox="0 0 16 16"><defs><style>.cls-1,.cls-2{fill:none;}.cls-2{stroke:#222b3d;stroke-linecap:round;stroke-linejoin:round;stroke-width:2px;}.cls-3{fill:#222b3d;fill-rule:evenodd;}</style></defs><rect class="cls-1" width="16" height="16"/><path class="cls-3" d="m10.44,4.06c0,.61-.18,1.18-.49,1.66-.44.84-1.32,1.41-2.33,1.41-.06,0-.13,0-.19,0h-.05c-1.69,0-3.05-1.37-3.05-3.06s1.37-3.06,3.05-3.06,3.05,1.37,3.05,3.06ZM1.5,15s0-.08,0-.11c.02-.89.22-1.73.58-2.48.98-2.08,3.09-3.53,5.55-3.53,1.85,0,3.52.82,4.64,2.12,0,0,0,0,0,0-.06,0-.12,0-.19,0-1.38,0-2.5,1.12-2.5,2.5,0,.56.19,1.08.5,1.5H1.5Z"/><path class="cls-2" d="m11.5,13.33l1,1.17,2-2.5"/></svg>