<?xml version="1.0" encoding="UTF-8"?><svg id="Layer_1" xmlns="http://www.w3.org/2000/svg" xmlns:xlink="http://www.w3.org/1999/xlink" viewBox="0 0 16 16"><defs><style>.cls-1{fill:none;}.cls-2{clip-path:url(#clippath);}.cls-3{fill:#222b3d;fill-rule:evenodd;}</style><clipPath id="clippath"><rect class="cls-1" width="16" height="16"/></clipPath></defs><rect class="cls-1" width="16" height="16"/><g class="cls-2"><path class="cls-3" d="m5,1.24c-.83,0-1.5.75-1.5,1.69v9.56h0v2.25h9v-2.25h0V2.92c0-.93-.67-1.69-1.5-1.69h-6Zm4.5,11.25v-.28c0-.47-.34-.84-.75-.84h-1.5c-.41,0-.75.38-.75.84v.28h3ZM7.25,3.77h-1.5v1.69h1.5v-1.69Zm-1.5,3.38h1.5v1.69h-1.5v-1.69Zm4.5-3.38h-1.5v1.69h1.5v-1.69Zm-1.5,3.38h1.5v1.69h-1.5v-1.69Z"/></g></svg>