<?xml version="1.0" encoding="UTF-8"?><svg id="Layer_1" xmlns="http://www.w3.org/2000/svg" viewBox="0 0 16 16"><defs><style>.cls-1{fill:none;}.cls-2{fill:#222b3d;}</style></defs><rect class="cls-1" width="16" height="16"/><path class="cls-2" d="m8,2c-1.19,0-2.35.35-3.33,1.01-.99.66-1.76,1.6-2.21,2.69s-.57,2.3-.34,3.47c.23,1.16.8,2.23,1.64,3.07.84.84,1.91,1.41,3.07,1.64,1.16.23,2.37.11,3.47-.34,1.1-.45,2.03-1.22,2.69-2.21.66-.99,1.01-2.15,1.01-3.33,0-1.59-.64-3.11-1.76-4.24-1.12-1.12-2.65-1.76-4.24-1.76Zm0,9.69c-.14,0-.27-.04-.38-.12-.11-.08-.2-.18-.26-.31-.05-.13-.07-.27-.04-.4.03-.13.09-.26.19-.35.1-.1.22-.16.36-.19.13-.03.27-.01.4.04.13.05.24.14.31.25.08.11.12.25.12.39,0,.18-.07.36-.2.49-.13.13-.31.2-.49.2Zm.46-2.82v.05c0,.12-.05.24-.14.33-.09.09-.2.14-.33.14s-.24-.05-.33-.14c-.09-.09-.14-.2-.14-.33v-.46c0-.12.05-.24.14-.33.09-.09.2-.14.33-.14.23,0,.45-.07.64-.19.19-.13.34-.31.42-.52.09-.21.11-.44.07-.67-.04-.22-.15-.43-.32-.59-.16-.16-.37-.27-.59-.32-.22-.04-.46-.02-.67.07-.21.09-.39.24-.52.43-.13.19-.2.41-.2.64,0,.12-.05.24-.13.33-.09.09-.2.14-.33.14s-.24-.05-.33-.14c-.09-.09-.13-.2-.13-.33,0-.39.11-.77.32-1.11.21-.33.51-.6.86-.77.35-.17.74-.24,1.13-.19.39.04.76.2,1.06.44.31.24.54.57.67.94.13.37.15.77.06,1.15-.09.38-.28.73-.56,1.01-.28.28-.62.47-1.01.56Z"/></svg>