<?xml version="1.0" encoding="UTF-8"?><svg id="Layer_1" xmlns="http://www.w3.org/2000/svg" viewBox="0 0 16 16"><defs><style>.cls-1{fill:none;}.cls-2{fill:#222b3d;fill-rule:evenodd;}</style></defs><rect class="cls-1" width="16" height="16"/><path class="cls-2" d="m14,2.75c0-.13-.03-.25-.1-.36-.06-.11-.15-.21-.26-.27-.11-.07-.23-.11-.36-.11-.13,0-.25.02-.37.08l-5.84,2.92h-2.82c-.6,0-1.17.24-1.59.66-.42.42-.66.99-.66,1.59s.24,1.17.66,1.59c.42.42.99.66,1.59.66h.21l1.33,3.99c.05.15.15.28.27.37.13.09.28.14.44.14h.75c.2,0,.39-.08.53-.22.14-.14.22-.33.22-.53v-3.29l4.91,2.46c.11.06.24.08.37.08.13,0,.25-.04.36-.11.11-.07.2-.16.26-.27.06-.11.1-.24.1-.36V2.75Z"/></svg>