<?xml version="1.0" encoding="UTF-8"?><svg id="Layer_1" xmlns="http://www.w3.org/2000/svg" viewBox="0 0 16 16"><defs><style>.cls-1{fill:none;}.cls-2{fill:#222b3d;}</style></defs><rect class="cls-1" width="16" height="16"/><path class="cls-2" d="m7.61,11.72s-.03.09-.06.13-.07.07-.11.1c-.04.02-.09.04-.14.05-.05,0-.1,0-.15,0l-1.44-.35c-.12-.03-.23-.08-.32-.16l-1.08-.91c-.08-.06-.12-.16-.13-.25s.03-.19.09-.27c.07-.07.16-.12.26-.13.1,0,.2.02.28.09l1.08.91,1.45.35c.1.02.18.08.24.17.05.08.07.19.04.28Zm6.36-4.42c-.03.09-.08.18-.15.26-.07.07-.15.14-.24.18l-1.11.54-.72.81s0,0,0,0c0,0,0,0,0,0,0,0,0,0,0,0l-1.76,1.71c-.15.14-.34.22-.54.22-.06,0-.12,0-.18-.02l-2.78-.67c-.1-.03-.2-.07-.29-.14l-2.59-1.96-1.15-.56c-.09-.04-.17-.11-.24-.18-.07-.07-.12-.16-.15-.26-.03-.09-.04-.19-.03-.29,0-.1.04-.19.08-.28l1.18-2.19c.09-.17.25-.3.44-.36.19-.06.4-.05.58.04l1.07.52,2.33-.66c.18-.05.36-.04.53.04l1.58.69h.79l1.12-.54c.18-.09.39-.1.58-.04.19.06.35.19.44.36l1.18,2.19c.05.09.08.18.08.28,0,.1,0,.2-.03.29Zm-3.1,1.59l-1.52-1.07-.39.28c-.33.24-.74.37-1.15.37s-.82-.13-1.15-.37l-.26-.19c-.09-.06-.16-.15-.21-.24-.05-.09-.08-.2-.09-.3,0-.11,0-.21.05-.31.04-.1.1-.19.18-.27l1.88-1.82s.06-.05.09-.07l-.37-.16-2.34.66-1.31,2.42,2.37,1.79,2.78.67,1.45-1.4Zm.9-.96l-1.31-2.42h-.73s0,0,0,0h-.99l-1.88,1.82.26.19c.2.14.44.22.69.22s.49-.08.69-.22l.61-.45c.07-.05.15-.07.23-.07.08,0,.16.02.23.07l1.82,1.28.37-.42Z"/></svg>