<?xml version="1.0" encoding="UTF-8"?><svg id="Layer_1" xmlns="http://www.w3.org/2000/svg" viewBox="0 0 16 16"><defs><style>.cls-1{fill:none;}.cls-2{fill:#222b3d;}</style></defs><rect class="cls-1" width="16" height="16"/><path class="cls-2" d="m8.57,1.83c-.31-.31-.82-.31-1.13,0L1.83,7.43c-.31.31-.31.82,0,1.13.31.31.82.31,1.13,0l.23-.23v5.27c0,.44.36.8.8.8h1.6c.44,0,.8-.36.8-.8v-1.6c0-.44.36-.8.8-.8h1.6c.44,0,.8.36.8.8v1.6c0,.44.36.8.8.8h1.6c.44,0,.8-.36.8-.8v-5.27l.23.23c.31.31.82.31,1.13,0,.31-.31.31-.82,0-1.13L8.57,1.83Z"/></svg>