<?xml version="1.0" encoding="UTF-8"?><svg id="Layer_1" xmlns="http://www.w3.org/2000/svg" viewBox="0 0 16 16"><defs><style>.cls-1{fill:none;}.cls-2,.cls-3{fill:#222b3d;}.cls-3{fill-rule:evenodd;}</style></defs><rect class="cls-1" width="16" height="16"/><path class="cls-3" d="m5,5v-.75c0-1.24,1.01-2.25,2.25-2.25h1.5c1.24,0,2.25,1.01,2.25,2.25v.75h1.5c.83,0,1.5.67,1.5,1.5v3.09s-3.89,0-6,0-6,0-6,0v-3.09c0-.83.67-1.5,1.5-1.5h1.5Zm1.5-.75c0-.41.34-.75.75-.75h1.5c.41,0,.75.34.75.75v.75h-3v-.75Zm.75,2.99c0-.41.34-.75.75-.75h0c.41,0,.75.34.75.75s-.34.75-.75.75h0c-.41,0-.75-.34-.75-.75Z"/><path class="cls-2" d="m2,10.77v1.73c0,.83.67,1.5,1.5,1.5h9c.83,0,1.5-.67,1.5-1.5v-1.73l-6-.02-6,.02Z"/></svg>