<?xml version="1.0" encoding="UTF-8"?><svg id="Layer_1" xmlns="http://www.w3.org/2000/svg" viewBox="0 0 16 16"><defs><style>.cls-1{fill:none;}.cls-2{fill:#222b3d;fill-rule:evenodd;}</style></defs><rect class="cls-1" width="16" height="16"/><path class="cls-2" d="m3.62,3.33c-.17,0-.3.13-.3.3v8.75c0,.17.13.3.3.3h8.74c.17,0,.3-.13.3-.3v-4.38c0-.39.31-.7.7-.7s.7.31.7.7v4.38c0,.94-.76,1.7-1.7,1.7H3.62c-.94,0-1.7-.76-1.7-1.7V3.63c0-.94.76-1.7,1.7-1.7h4.07c.39,0,.7.31.7.7s-.31.7-.7.7H3.62Zm6.18-.7c0-.39.31-.7.7-.7h2.87c.08,0,.15.01.23.04.1.03.19.09.27.17.14.14.21.32.21.51v2.86c0,.39-.31.7-.7.7s-.7-.31-.7-.7v-1.18l-2.15,2.15c-.27.27-.72.27-.99,0-.27-.27-.27-.72,0-.99l2.15-2.15h-1.18c-.39,0-.7-.31-.7-.7Z"/></svg>