<?xml version="1.0" encoding="UTF-8"?><svg id="Layer_1" xmlns="http://www.w3.org/2000/svg" viewBox="0 0 16 16"><defs><style>.cls-1{fill:none;}.cls-2{fill:#222b3d;fill-rule:evenodd;}</style></defs><path class="cls-2" d="m6.39,5.95c0-.89.72-1.61,1.61-1.61s1.6.72,1.6,1.61-.7,1.59-1.57,1.6c-.01,0-.02,0-.03,0s-.02,0-.03,0c-.87-.02-1.57-.73-1.57-1.6Zm-.54,2.11c-.53-.54-.86-1.29-.86-2.11,0-1.66,1.35-3.01,3.01-3.01s3.01,1.35,3.01,3.01c0,.82-.33,1.57-.86,2.11,1.57.79,2.66,2.41,2.66,4.29,0,.39-.31.7-.7.7s-.7-.31-.7-.7c0-1.86-1.5-3.38-3.36-3.4-.01,0-.02,0-.04,0s-.02,0-.04,0c-1.86.02-3.36,1.53-3.36,3.4,0,.39-.31.7-.7.7s-.7-.31-.7-.7c0-1.88,1.08-3.51,2.66-4.29Z"/><rect class="cls-1" width="16" height="16"/></svg>