<?xml version="1.0" encoding="UTF-8"?><svg id="Layer_1" xmlns="http://www.w3.org/2000/svg" viewBox="0 0 16 16"><defs><style>.cls-1{fill:none;}.cls-2{fill:#222b3d;fill-rule:evenodd;}</style></defs><path class="cls-2" d="m7.66,4.35c-.89,0-1.61.72-1.61,1.61s.7,1.59,1.57,1.6h.03s.03,0,.03,0c.87-.02,1.57-.73,1.57-1.6s-.72-1.61-1.61-1.61Zm-3.01,1.61c0,.82.33,1.57.86,2.11-1.57.79-2.66,2.41-2.66,4.29,0,.39.31.7.7.7s.7-.31.7-.7c0-1.86,1.5-3.38,3.36-3.4h.04s.04,0,.04,0c.8,0,1.54.29,2.11.77.41-.28.9-.44,1.44-.44.03,0,.07,0,.1,0-.42-.51-.95-.93-1.54-1.22.53-.54.86-1.29.86-2.11,0-1.66-1.35-3.01-3.01-3.01s-3.01,1.35-3.01,3.01Zm8.26,5.2c.28-.27.29-.71.02-.99-.27-.28-.71-.29-.99-.02l-1.15,1.1-.36-.35c-.28-.27-.72-.26-.99.02-.27.28-.26.72.02.99l.85.81c.27.26.7.26.97,0l1.63-1.56Z"/><rect class="cls-1" width="16" height="16"/></svg>