<?xml version="1.0" encoding="UTF-8"?><svg id="Layer_1" xmlns="http://www.w3.org/2000/svg" viewBox="0 0 16 16"><defs><style>.cls-1,.cls-2{fill:none;}.cls-2{stroke:#222b3d;stroke-linecap:round;stroke-linejoin:round;stroke-width:1.4px;}</style></defs><rect class="cls-1" width="16" height="16"/><path class="cls-2" d="m5.54,8.04c.51,1.06,1.37,1.92,2.44,2.43.08.04.17.05.25.05.09,0,.17-.04.24-.08l1.56-1.04c.07-.05.15-.07.23-.08.08,0,.17,0,.24.04l2.93,1.26c.1.04.18.11.24.21.05.09.08.2.06.31-.09.72-.45,1.39-.99,1.87-.55.48-1.25.75-1.98.75-2.25,0-4.42-.9-6.01-2.49s-2.49-3.76-2.49-6.01c0-.73.27-1.43.75-1.98.48-.55,1.15-.9,1.87-.99.11-.01.22,0,.31.06.09.06.17.14.21.24l1.26,2.93c.03.07.05.16.04.24,0,.08-.03.16-.08.23l-1.04,1.59c-.05.07-.07.15-.08.24,0,.09.01.17.05.25h0Z"/></svg>