<?xml version="1.0" encoding="UTF-8"?><svg id="Layer_1" xmlns="http://www.w3.org/2000/svg" viewBox="0 0 16 16"><defs><style>.cls-1{fill:none;}.cls-2{fill:#222b3d;fill-rule:evenodd;}</style></defs><rect class="cls-1" width="16" height="16"/><path class="cls-2" d="m8,1.5c-3.59,0-6.5,2.91-6.5,6.5s2.91,6.5,6.5,6.5,6.5-2.91,6.5-6.5S11.59,1.5,8,1.5Zm0,11.7c-2.87,0-5.2-2.33-5.2-5.2,0-1.2.41-2.31,1.1-3.18l7.29,7.29c-.88.69-1.98,1.1-3.18,1.1ZM4.82,3.9l7.29,7.29c.69-.88,1.1-1.98,1.1-3.18,0-2.87-2.33-5.2-5.2-5.2-1.2,0-2.31.41-3.18,1.1Z"/></svg>