<?xml version="1.0" encoding="UTF-8"?><svg id="Layer_1" xmlns="http://www.w3.org/2000/svg" viewBox="0 0 16 16"><defs><style>.cls-1{fill:#253c70;}.cls-2{fill:#fffefe;}.cls-2,.cls-3{fill-rule:evenodd;}.cls-3{fill:#fffffe;}</style></defs><circle class="cls-1" cx="8" cy="8" r="8"/><path class="cls-2" d="m9.03,3.17c.13-.36-.26-.74-.62-.62-.33.08-.46.52-.25.77.21.31.77.22.87-.15Z"/><path class="cls-2" d="m8.41,4.2c-.38.09-.47.67-.14.87.27.22.73.03.78-.32.08-.35-.3-.67-.63-.56Z"/><path class="cls-2" d="m11.62,5.76c-.36.12-.53.62-.29.92.25.4.95.31,1.08-.15.19-.47-.33-.96-.79-.78Z"/><path class="cls-2" d="m8.4,5.86c-.35.09-.46.59-.19.83.22.23.65.16.79-.14.22-.37-.2-.84-.59-.69Z"/><path class="cls-2" d="m5.77,6.7c.26,0,.46-.34.3-.56-.11-.2-.41-.26-.57-.08-.27.21-.06.69.27.64Z"/><path class="cls-2" d="m1.76,6.41c.12-.15-.14-.33-.24-.17-.12.15.14.33.24.17Z"/><path class="cls-2" d="m1.56,7.9c-.12.15.14.33.24.17.12-.15-.14-.33-.24-.17Z"/><path class="cls-2" d="m1.56,9.55c-.12.15.14.33.24.17.12-.15-.14-.33-.24-.17Z"/><path class="cls-2" d="m11.62,7.41c-.42.14-.54.76-.19,1.04.36.34,1.03.05,1.02-.45.02-.42-.44-.73-.83-.58Z"/><path class="cls-2" d="m13.26,7.4c-.49.21-.49.99,0,1.19.41.25,1-.12.97-.6.02-.47-.55-.83-.97-.6Z"/><path class="cls-2" d="m9.05,7.99c.03-.37-.42-.62-.74-.44-.31.16-.34.66-.03.84.3.23.78-.03.77-.4Z"/><path class="cls-2" d="m6.83,7.6c-.23.1-.27.41-.16.61.16.26.61.25.74-.03.24-.34-.24-.82-.59-.58Z"/><path class="cls-2" d="m11.53,9.1c-.39.21-.42.82-.03,1.05.37.27.97-.04.95-.5.04-.47-.52-.76-.91-.55Z"/><path class="cls-2" d="m8.29,10.04c.32.25.82-.09.76-.47-.02-.35-.44-.53-.74-.37-.31.16-.34.68-.02.85Z"/><path class="cls-2" d="m5.61,9.29c-.24.09-.31.45-.11.62.2.22.62.05.62-.25.04-.26-.27-.48-.51-.37Z"/><path class="cls-2" d="m6.81,9.26c-.27.13-.28.56-.03.73.26.18.69,0,.68-.33.04-.32-.38-.59-.65-.39Z"/><path class="cls-2" d="m8.39,10.82c-.38.11-.43.68-.1.88.32.25.82-.08.76-.47-.02-.31-.38-.51-.66-.4Z"/><path class="cls-2" d="m9.86,10.82c-.33.18-.35.69-.05.9.32.26.86.01.87-.4.05-.42-.48-.75-.83-.5Z"/><path class="cls-2" d="m9.81,10.05c.32.26.86.01.87-.4.05-.42-.48-.75-.83-.5-.33.18-.36.69-.05.9Z"/><path class="cls-2" d="m9.88,7.52c-.33.18-.35.69-.05.9.32.26.86.01.87-.4.04-.42-.48-.74-.83-.5Z"/><path class="cls-2" d="m9.83,6.78c.32.26.86.01.87-.4.05-.42-.48-.74-.83-.5-.33.18-.35.69-.05.9Z"/><path class="cls-2" d="m9.88,4.21c-.33.18-.35.69-.05.9.32.26.86.01.87-.4.05-.42-.48-.75-.83-.5Z"/><path class="cls-2" d="m8.39,12.49c-.38.11-.43.68-.1.88.32.25.82-.08.76-.47-.02-.31-.38-.51-.66-.41Z"/><path class="cls-2" d="m6.78,6.68c.26.18.69,0,.68-.33.04-.32-.38-.59-.65-.4-.27.13-.28.57-.03.73Z"/><path class="cls-2" d="m5.62,7.63c-.25.09-.31.45-.11.62.2.22.62.05.62-.25.04-.26-.27-.48-.51-.37Z"/><path class="cls-3" d="m4.53,9.32c-.18,0-.32.14-.32.32s.14.32.32.32.32-.14.32-.32-.14-.32-.32-.32Z"/><path class="cls-3" d="m4.55,7.66c-.18,0-.32.14-.32.32s.14.32.32.32.32-.14.32-.32-.14-.32-.32-.32Z"/><path class="cls-3" d="m4.55,6.01c-.18,0-.32.14-.32.32s.14.32.32.32.32-.14.32-.32-.14-.32-.32-.32Z"/><path class="cls-3" d="m3.51,9.37c-.15,0-.27.12-.27.27s.12.27.27.27.27-.12.27-.27-.12-.27-.27-.27Z"/><path class="cls-3" d="m3.51,8.26c.15,0,.27-.12.27-.27s-.12-.27-.27-.27-.27.12-.27.27.12.27.27.27Z"/><path class="cls-3" d="m3.51,6.61c.15,0,.27-.12.27-.27s-.12-.27-.27-.27-.27.12-.27.27.12.27.27.27Z"/><path class="cls-2" d="m2.49,9.44c-.12,0-.21.1-.21.21s.1.21.21.21.21-.1.21-.21-.1-.21-.21-.21Z"/><path class="cls-2" d="m2.5,7.76c-.12,0-.21.1-.21.21s.1.21.21.21.21-.1.21-.21-.1-.21-.21-.21Z"/><path class="cls-2" d="m2.5,6.11c-.12,0-.21.09-.21.21s.1.21.21.21.21-.1.21-.21-.1-.21-.21-.21Z"/></svg>