<?xml version="1.0" encoding="utf-8"?>
<!-- Generator: Adobe Illustrator 27.5.0, SVG Export Plug-In . SVG Version: 6.00 Build 0)  -->
<svg version="1.1" id="Layer_1" xmlns="http://www.w3.org/2000/svg" xmlns:xlink="http://www.w3.org/1999/xlink" x="0px" y="0px"
	 viewBox="0 0 16 16" style="enable-background:new 0 0 16 16;" xml:space="preserve">
<style type="text/css">
	.st0{fill:none;}
	.st1{fill:#222B3D;}
</style>
<rect class="st0" width="16" height="16"/>
<path class="st1" d="M15,6.7c-0.1-0.1-0.2-0.2-0.4-0.3c-0.1-0.1-0.3-0.1-0.5-0.1h-1v-1c0-0.3-0.1-0.5-0.3-0.7s-0.4-0.3-0.7-0.3H7.9
	L6.1,3C6,2.8,5.8,2.8,5.5,2.8H2.2C1.9,2.8,1.7,2.9,1.5,3S1.2,3.5,1.2,3.8v9c0,0.1,0,0.3,0.1,0.4c0.1,0.1,0.2,0.1,0.4,0.1h11.2
	c0.1,0,0.2,0,0.3-0.1c0.1-0.1,0.1-0.1,0.2-0.2l1.8-5.3c0.1-0.2,0.1-0.3,0-0.5S15.1,6.8,15,6.7L15,6.7z M5.5,3.8l1.7,1.3
	c0.2,0.1,0.4,0.2,0.6,0.2h4.3v1H4.1c-0.2,0-0.4,0.1-0.6,0.2C3.3,6.6,3.2,6.7,3.1,6.9L2.2,9.7V3.8H5.5L5.5,3.8z M12.5,12.2H2.4l1.7-5
	h10.1L12.5,12.2z"/>
</svg>
