<?xml version="1.0" encoding="UTF-8"?><svg id="Layer_1" xmlns="http://www.w3.org/2000/svg" viewBox="0 0 16 16"><defs><style>.cls-1,.cls-2{fill:none;}.cls-2{stroke:#222b3d;stroke-linecap:round;stroke-linejoin:round;stroke-width:1.4px;}</style></defs><rect class="cls-1" width="16" height="16"/><path class="cls-2" d="m5.79,8.89c.13-.27.21-.57.21-.89s-.08-.62-.21-.89m0,1.79c-.33.66-1.01,1.11-1.79,1.11-1.1,0-2-.89-2-2s.9-2,2-2c.78,0,1.46.45,1.79,1.11m0,1.79l4.42,2.21m-4.42-4l4.42-2.21m0,0c.33.66,1.01,1.11,1.79,1.11,1.1,0,2-.89,2-2s-.9-2-2-2-2,.89-2,2c0,.32.08.62.21.89Zm0,6.21c-.13.27-.21.57-.21.89,0,1.11.9,2,2,2s2-.89,2-2-.9-2-2-2c-.78,0-1.46.45-1.79,1.11Z"/></svg>