<?xml version="1.0" encoding="UTF-8"?><svg id="Layer_1" xmlns="http://www.w3.org/2000/svg" viewBox="0 0 16 16"><defs><style>.cls-1,.cls-2{fill:none;}.cls-2{stroke:#222b3d;stroke-linecap:round;stroke-linejoin:round;stroke-width:1.4px;}</style></defs><rect class="cls-1" x="0" width="16" height="16"/><rect class="cls-1" width="16" height="16"/><path class="cls-2" d="m11.06,6.17v-2.29c0-.37-.17-.71-.48-.97s-.72-.4-1.16-.4h-4.36c-.43,0-.85.15-1.16.4s-.48.61-.48.97v8.25c0,.37.17.71.48.97s.72.4,1.16.4h4.36c.43,0,.85-.15,1.16-.4s.48-.61.48-.97v-2.29m-2.73-3.67l-2.18,1.83m0,0l2.18,1.83m-2.18-1.83h7.27"/></svg>