<?xml version="1.0" encoding="UTF-8"?><svg id="Layer_1" xmlns="http://www.w3.org/2000/svg" viewBox="0 0 16 16"><defs><style>.cls-1{fill:none;}</style></defs><rect class="cls-1" x="0" y="0" width="16" height="16"/><path d="m3,2c-1.28,0-2.33,1.05-2.33,2.33v7.67c0,1.1.9,2,2,2h2.67v-4.88l2.67,2.08,2.67-2.08v4.88h2.67c1.1,0,2-.9,2-2v-7.67c0-1.28-1.05-2.33-2.33-2.33-.5,0-1.01.16-1.44.49l-3.56,2.78-3.56-2.78h0c-.43-.33-.94-.49-1.44-.49Zm0,1.33c.22,0,.43.07.62.21l.38.3v2.54l-2-1.56v-.49c0-.56.44-1,1-1Zm10,0c.56,0,1,.44,1,1v.49l-2,1.56v-2.54l.38-.3c.19-.15.4-.21.62-.21Zm-7.67,1.55l2.67,2.08,2.67-2.08v2.54l-2.67,2.08-2.67-2.08v-2.54Zm-3.33,1.63l2,1.56v4.59h-1.33c-.38,0-.67-.29-.67-.67v-5.49Zm12,0v5.49c0,.38-.29.67-.67.67h-1.33v-4.59l2-1.56Z"/></svg>