<?xml version="1.0" encoding="UTF-8"?><svg id="Layer_1" xmlns="http://www.w3.org/2000/svg" viewBox="0 0 16 16"><defs><style>.cls-1{fill:none;}.cls-2{fill:#222b3d;}</style></defs><rect class="cls-1" y="0" width="16" height="16"/><path class="cls-2" d="m1.78,1h12.44c.43,0,.78.35.78.78v12.44c0,.43-.35.78-.78.78H1.78c-.43,0-.78-.35-.78-.78V1.78c0-.43.35-.78.78-.78Zm.78,1.56v10.89h10.89V2.56H2.56Zm1.94,3.11c-.64,0-1.17-.52-1.17-1.17s.52-1.17,1.17-1.17,1.17.52,1.17,1.17-.52,1.17-1.17,1.17Zm-.78.78h1.56v5.83h-1.56v-5.83Zm4.28.33c.45-.44.98-.72,1.56-.72,1.61,0,2.72,1.31,2.72,2.92v3.31h-1.56v-3.31c0-.75-.61-1.36-1.36-1.36s-1.36.61-1.36,1.36v3.31h-1.56v-5.83h1.56v.33Z"/></svg>