<?xml version="1.0" encoding="UTF-8"?><svg id="Layer_1" xmlns="http://www.w3.org/2000/svg" viewBox="0 0 16 16"><defs><style>.cls-1{fill:none;}.cls-2{fill:#222b3d;}</style></defs><path class="cls-2" d="m8,6c-1.11,0-2,.9-2,2s.9,2,2,2,2-.9,2-2-.9-2-2-2Zm0-1.33c1.84,0,3.33,1.49,3.33,3.33s-1.49,3.33-3.33,3.33-3.33-1.49-3.33-3.33,1.49-3.33,3.33-3.33Zm4.33-.17c0,.46-.37.83-.83.83s-.83-.37-.83-.83.37-.83.83-.83c.46,0,.83.37.83.83Zm-4.33-1.83c-1.65,0-1.92,0-2.69.04-.52.02-.87.1-1.2.22-.29.11-.5.25-.72.47-.22.22-.36.43-.47.72-.13.33-.2.68-.22,1.2-.03.74-.04.99-.04,2.69s0,1.92.04,2.69c.02.52.09.87.22,1.2.11.29.25.5.47.72.22.22.43.36.72.47.33.13.68.2,1.2.22.74.03.99.04,2.69.04s1.92,0,2.69-.04c.52-.02.87-.1,1.2-.22.29-.11.5-.25.72-.47.22-.23.36-.43.47-.72.13-.33.2-.68.22-1.2.03-.74.04-.99.04-2.69s0-1.92-.04-2.69c-.02-.52-.1-.87-.22-1.2-.11-.29-.25-.5-.47-.72-.22-.22-.43-.36-.72-.47-.33-.13-.68-.2-1.2-.22-.74-.03-.99-.04-2.69-.04Zm0-1.33c1.81,0,2.04,0,2.75.04.71.03,1.19.15,1.62.31.44.17.81.4,1.18.77.37.37.6.74.77,1.18.16.43.28.91.31,1.62.03.71.04.94.04,2.75s0,2.04-.04,2.75c-.03.71-.15,1.19-.31,1.62-.17.44-.4.81-.77,1.18-.37.37-.74.6-1.18.77-.43.16-.91.28-1.62.31-.71.03-.94.04-2.75.04s-2.04,0-2.75-.04c-.71-.03-1.19-.15-1.62-.31-.44-.17-.81-.4-1.18-.77-.37-.37-.6-.74-.77-1.18-.17-.43-.28-.91-.31-1.62-.03-.71-.04-.94-.04-2.75s0-2.04.04-2.75c.03-.71.14-1.19.31-1.62.17-.44.4-.81.77-1.18.37-.37.74-.6,1.18-.77.42-.16.91-.28,1.62-.31.71-.03.94-.04,2.75-.04Z"/><rect class="cls-1" width="16" height="16"/></svg>