<?xml version="1.0" encoding="UTF-8"?><svg id="Layer_1" xmlns="http://www.w3.org/2000/svg" viewBox="0 0 16 16"><defs><style>.cls-1{fill:none;}.cls-2{fill:#222b3d;}</style></defs><path class="cls-2" d="m4.7,12.5l.5.3c.8.5,1.8.8,2.8.8,3.1,0,5.6-2.5,5.6-5.6s-2.5-5.6-5.6-5.6-5.6,2.5-5.6,5.6c0,1,.3,2,.8,2.8l.3.5-.5,1.7,1.7-.5Zm-3.7,2.5l1-3.5c-.6-1-1-2.2-1-3.5,0-3.9,3.1-7,7-7s7,3.1,7,7-3.1,7-7,7c-1.3,0-2.5-.3-3.5-1l-3.5,1ZM5.5,4.7h.4c.1,0,.2.1.3.2.2.5.4,1,.6,1.4,0,.1,0,.2-.1.4,0,.1-.1.2-.2.3s-.2.3-.2.3c0,0-.1.1,0,.2,0,0,0,.1.1.1v.1c.1.3.3.6.6.8.1.1.2.2.3.2.3.4.7.6,1.1.8q.1,0,.2.1h.1c.1,0,.2-.1.2-.1.5-.6.6-.7.6-.7.1-.1.2-.1.3-.1h.1c.4.2,1,.4,1,.4l.4.2c.1,0,.1.1.1.2v.3c0,.2-.1.4-.1.5s-.1.2-.1.2q-.1.1-.2.2c-.1,0-.1.1-.1.1-.1.1-.2.1-.3.2-.2.1-.4.2-.6.2h-.4l-.4-.1c-1-.3-1.9-.7-2.7-1.4-.2-.2-.3-.3-.5-.5-.6-.6-1.1-1.2-1.3-1.9-.2-.3-.3-.6-.3-1s.1-.8.4-1.2c.1,0,.1-.1.2-.2s.1-.1.2-.2h.3Z"/><rect class="cls-1" width="16" height="16"/></svg>