<?xml version="1.0" encoding="UTF-8"?><svg id="Layer_1" xmlns="http://www.w3.org/2000/svg" viewBox="0 0 16 16"><defs><style>.cls-1{fill:none;}.cls-2{fill:#222b3d;}</style></defs><path class="cls-2" d="m10.7,3.59c-.53,0-1.04.21-1.42.58-.38.37-.6.88-.61,1.41l-.02,1.1c0,.06-.01.12-.04.17-.02.05-.06.1-.11.14-.05.04-.1.07-.15.08-.06.02-.12.02-.17.01l-1.09-.15c-1.43-.2-2.81-.86-4.12-1.95-.42,2.31.4,3.91,2.36,5.15l1.22.77c.06.04.11.09.14.15.03.06.05.13.06.19,0,.07-.01.14-.04.2-.03.06-.07.11-.13.16l-1.11.81c.66.04,1.29.01,1.81-.09,3.29-.66,5.48-3.14,5.48-7.22,0-.33-.71-1.49-2.05-1.49Zm-3.42,1.96c.01-.67.22-1.33.61-1.88.38-.55.92-.98,1.54-1.23.62-.25,1.31-.31,1.97-.17.66.14,1.26.47,1.73.94.5,0,.92.12,1.86-.45-.23,1.14-.35,1.64-.85,2.32,0,5.33-3.28,7.93-6.61,8.59-2.28.46-5.6-.29-6.55-1.28.48-.04,2.45-.25,3.59-1.08-.96-.63-4.79-2.89-2.28-8.95,1.18,1.38,2.38,2.32,3.6,2.82.81.33,1.01.32,1.38.37Z"/><rect class="cls-1" width="16" height="16"/></svg>