<?xml version="1.0" encoding="UTF-8"?><svg id="Layer_1" xmlns="http://www.w3.org/2000/svg" xmlns:xlink="http://www.w3.org/1999/xlink" viewBox="0 0 16 16"><defs><style>.cls-1{fill:none;}.cls-2{clip-path:url(#clippath);}.cls-3{fill:#222b3d;}</style><clipPath id="clippath"><rect class="cls-1" width="16" height="16"/></clipPath></defs><g class="cls-2"><path class="cls-3" d="m13.32,4.1c-.05-.21-.2-.37-.38-.41-.31-.09-1.8-.28-4.95-.28s-4.64.2-4.95.28c-.17.05-.32.2-.38.41-.08.3-.28,1.54-.28,3.5s.2,3.21.28,3.5c.05.21.2.37.38.41.31.09,1.8.28,4.95.28s4.64-.2,4.95-.28c.17-.05.32-.21.38-.41.08-.3.28-1.54.28-3.5s-.2-3.21-.28-3.5Zm1.36-.35c.32,1.25.32,3.85.32,3.85,0,0,0,2.6-.32,3.85-.18.69-.7,1.23-1.36,1.42-1.2.33-5.32.33-5.32.33,0,0-4.12,0-5.32-.33-.66-.19-1.18-.73-1.36-1.42-.32-1.25-.32-3.85-.32-3.85,0,0,0-2.6.32-3.85.18-.69.7-1.23,1.36-1.42,1.2-.33,5.32-.33,5.32-.33,0,0,4.13,0,5.32.33.66.19,1.18.73,1.36,1.42Zm-8.08,6.3v-4.9l4.2,2.45-4.2,2.45Z"/><rect class="cls-1" x="0" y="0" width="16" height="16"/></g></svg>