<?xml version="1.0" encoding="UTF-8"?><svg id="Layer_1" xmlns="http://www.w3.org/2000/svg" viewBox="0 0 16 16"><defs><style>.cls-1{fill:none;}.cls-2{fill:#222b3d;}</style></defs><rect class="cls-1" width="16" height="16"/><path class="cls-2" d="m9.56,13.44h3.89V2.56H2.56v10.89h5.44v-3.89h-1.56v-1.56h1.56v-1.29c0-1.04.11-1.42.31-1.8.2-.38.51-.68.88-.88.3-.16.67-.25,1.31-.3.26-.02.59,0,.99.06v1.48h-.39c-.71,0-1.01.03-1.18.13-.1.05-.19.14-.24.24-.09.18-.13.35-.13,1.06v1.29h1.94l-.39,1.56h-1.55v3.89ZM1.78,1h12.44c.21,0,.4.08.55.23.15.15.23.34.23.55v12.44c0,.21-.08.4-.23.55-.15.15-.34.23-.55.23H1.78c-.21,0-.4-.08-.55-.23-.15-.15-.23-.34-.23-.55V1.78c0-.21.08-.4.23-.55.15-.15.34-.23.55-.23Z"/></svg>