<?xml version="1.0" encoding="UTF-8"?><svg id="Layer_1" xmlns="http://www.w3.org/2000/svg" viewBox="0 0 16 16"><defs><style>.cls-1{fill:none;}.cls-2{fill:#222b3d;fill-rule:evenodd;}</style></defs><rect class="cls-1" width="16" height="16"/><rect class="cls-1" width="16" height="16"/><path class="cls-2" d="m8.5,2.6c-.27-.27-.72-.27-.99,0l-2.2,2.2c-.27.27-.27.72,0,.99.27.27.72.27.99,0l1-1.01v4.91c0,.39.31.7.7.7s.7-.31.7-.7v-4.91l1,1.01c.27.27.72.27.99,0,.27-.27.27-.72,0-.99l-2.2-2.2Zm-4.2,8.1c0-.39-.31-.7-.7-.7s-.7.31-.7.7v1.1c0,.48.19.93.53,1.27.34.34.8.53,1.27.53h6.6c.48,0,.94-.19,1.27-.53.34-.34.53-.8.53-1.27v-1.1c0-.39-.31-.7-.7-.7s-.7.31-.7.7v1.1c0,.11-.04.21-.12.28-.07.07-.18.12-.28.12h-6.6c-.11,0-.21-.04-.28-.12-.07-.08-.12-.18-.12-.28v-1.1Z"/></svg>