<?xml version="1.0" encoding="UTF-8"?><svg id="Layer_1" xmlns="http://www.w3.org/2000/svg" viewBox="0 0 16 16"><defs><style>.cls-1,.cls-2{fill:none;}.cls-2{stroke:#222b3d;stroke-linecap:round;stroke-linejoin:round;stroke-width:1.4px;}</style></defs><rect class="cls-1" x="0" width="16" height="16"/><rect class="cls-1" width="16" height="16"/><path class="cls-2" d="m13.3,8c0,.7-.14,1.39-.4,2.03-.27.64-.66,1.23-1.15,1.72-.49.49-1.08.88-1.72,1.15-.64.27-1.33.4-2.03.4s-1.39-.14-2.03-.4c-.64-.27-1.23-.66-1.72-1.15-.49-.49-.88-1.08-1.15-1.72-.27-.64-.4-1.33-.4-2.03,0-1.41.56-2.75,1.55-3.75.99-.99,2.34-1.55,3.75-1.55s2.75.56,3.75,1.55c.99.99,1.55,2.34,1.55,3.75Z"/><path class="cls-2" d="m10.43,7.8s.07.05.09.08.03.07.03.11-.01.08-.03.11-.05.06-.09.08l-3.65,1.85s-.08.03-.12.03c-.04,0-.08-.01-.12-.03-.04-.02-.07-.05-.09-.08-.02-.03-.03-.07-.03-.11v-3.69c0-.17.2-.28.36-.19l3.65,1.85Z"/></svg>