<?xml version="1.0" encoding="UTF-8"?><svg id="Layer_1" xmlns="http://www.w3.org/2000/svg" viewBox="0 0 16 16"><defs><style>.cls-1{fill:none;}.cls-2{fill:#222b3d;fill-rule:evenodd;}</style></defs><path class="cls-2" d="m14,8c0,3.31-2.69,6-6,6s-6-2.69-6-6,2.69-6,6-6,6,2.69,6,6Zm-5.25,3c0,.41-.34.75-.75.75s-.75-.34-.75-.75.34-.75.75-.75.75.34.75.75Zm-.75-6.75c-.41,0-.75.34-.75.75v3c0,.41.34.75.75.75s.75-.34.75-.75v-3c0-.41-.34-.75-.75-.75Z"/><rect class="cls-1" x="0" width="16" height="16"/></svg>